<?xml version="1.0" standalone="no"?>
<!DOCTYPE svg PUBLIC "-//W3C//DTD SVG 20010904//EN"
 "http://www.w3.org/TR/2001/REC-SVG-20010904/DTD/svg10.dtd">
<svg version="1.0" xmlns="http://www.w3.org/2000/svg"
 width="300.000000pt" height="300.000000pt" viewBox="0 0 300.000000 300.000000"
 preserveAspectRatio="xMidYMid meet">
<metadata>
Created by potrace 1.11, written by Peter Selinger 2001-2013
</metadata>
<g transform="translate(0.000000,300.000000) scale(0.100000,-0.100000)"
fill="#000000" stroke="none">
<path d="M9 2837 c-3 -74 -3 -2665 0 -2680 3 -16 83 -17 1497 -17 l1494 0 0
1359 0 1360 -1495 0 -1495 -1 -1 -21z m2899 -1338 l2 -1256 -1400 0 -1400 0 0
1257 0 1257 1398 -1 1397 -1 3 -1256z"/>
<path d="M334 2525 c-2 -11 -3 -479 -2 -1040 l3 -1020 525 -2 c550 -2 573 -1
690 43 108 41 209 128 264 228 52 93 69 165 70 286 0 104 -10 151 -49 237 -8
17 -12 39 -8 49 5 13 3 16 -10 11 -9 -3 -17 -2 -17 4 0 18 -157 169 -185 178
-46 15 -85 35 -85 43 0 5 4 7 9 4 9 -6 115 55 150 87 100 93 162 244 157 387
-8 200 -93 351 -250 441 -49 27 -167 69 -211 74 -11 1 -20 4 -20 5 0 1 -231 3
-513 4 -506 1 -513 1 -518 -19z m970 -242 c177 -40 260 -155 251 -348 -6 -113
-68 -203 -175 -253 l-55 -26 -357 -4 -358 -4 -2 69 c-4 179 -5 512 0 545 l4
36 312 1 c247 0 325 -3 380 -16z m91 -913 c89 -35 177 -133 193 -215 6 -34 6
-179 0 -205 -22 -89 -69 -147 -157 -194 -39 -20 -75 -35 -80 -31 -5 3 -12 1
-16 -4 -3 -6 -144 -10 -365 -10 l-360 -1 -2 128 c-4 269 -4 479 0 518 l4 41
361 -2 c352 -2 364 -2 422 -25z"/>
<path d="M2067 2542 c-13 -3 -17 -14 -17 -52 0 -28 5 -52 13 -57 6 -4 66 -7
132 -8 l120 0 2 -345 c1 -190 2 -357 2 -372 1 -27 3 -28 55 -28 30 0 58 5 61
10 4 6 7 173 7 370 0 198 3 360 6 361 4 1 60 2 124 3 64 1 121 5 125 9 11 12
11 97 -1 105 -11 7 -595 10 -629 4z"/>
<path d="M2037 1562 c-22 -24 -21 -55 1 -75 16 -15 53 -17 314 -17 273 0 296
1 311 18 22 24 21 55 -1 75 -16 15 -53 17 -314 17 -273 0 -296 -1 -311 -18z"/>
<path d="M2063 1318 c-14 -17 -14 -828 0 -845 7 -10 64 -13 223 -13 253 0 296
10 362 86 95 107 71 253 -58 354 -18 14 -20 19 -9 20 21 0 72 57 93 103 17 38
18 95 3 156 -13 50 -52 92 -112 121 l-60 29 -216 1 c-165 0 -218 -2 -226 -12z
m437 -124 c48 -27 70 -76 58 -127 -21 -94 -44 -104 -236 -104 -137 0 -142 1
-143 21 -2 86 0 216 4 223 3 5 68 9 144 8 120 -1 144 -4 173 -21z m17 -372
c41 -29 61 -70 58 -121 -3 -52 -26 -86 -73 -109 -31 -15 -61 -18 -177 -18
l-140 1 -3 138 -3 139 153 -4 c140 -3 156 -5 185 -26z"/>
</g>
</svg>
